<svg width="112" height="112" viewBox="0 0 112 112" fill="none" xmlns="http://www.w3.org/2000/svg">
<g filter="url(#filter0_f)">
<rect x="88" y="24" width="64" height="64" transform="rotate(90 88 24)" fill="#DFDFDF" fill-opacity="0.7"/>
</g>
<rect x="98" y="31" width="48" height="64" transform="rotate(90 98 31)" fill="#FF5722"/>
<path d="M66.0066 60.5332C65.7133 60.5332 65.4466 60.4265 65.2333 60.2132L58.5666 53.2799C58.1666 52.8532 58.1666 52.1866 58.5933 51.7599C59.02 51.3599 59.6867 51.3599 60.1133 51.7866L66.0066 57.9199L71.9 51.7866C72.3 51.3599 72.9933 51.3599 73.42 51.7599C73.8467 52.1599 73.8466 52.8532 73.4466 53.2799L66.78 60.2132C66.5667 60.4265 66.3 60.5332 66.0066 60.5332Z" fill="white"/>
<defs>
<filter id="filter0_f" x="0" y="0" width="112" height="112" filterUnits="userSpaceOnUse" color-interpolation-filters="sRGB">
<feFlood flood-opacity="0" result="BackgroundImageFix"/>
<feBlend mode="normal" in="SourceGraphic" in2="BackgroundImageFix" result="shape"/>
<feGaussianBlur stdDeviation="12" result="effect1_foregroundBlur"/>
</filter>
</defs>
</svg>
